# xmcd CD database file
#
# Track frame offsets:
#	150
#	25012
#	44702
#	67027
#	95325
#	124622
#	151727
#	178725
#	207975
#	226800
#
# Disc length: 3294 seconds
#
# Revision: 0
# Processed by: cddbd v1.5.2PL0 Copyright (c) Steve Scherf et al.
# Submitted via: CDex 1.70beta2
#
DISCID=7f0cdc0a
DTITLE=Buck Hill - Impulse
DYEAR=1995
DGENRE=Jazz
TTITLE0=Blues In The Closet
TTITLE1=You Taught My Heart To Sing
TTITLE2=Random Walk
TTITLE3=Impulse
TTITLE4=In A Sentimental Mood
TTITLE5=Sweet Georgia Brown
TTITLE6=Solitude (In My Solitude)
TTITLE7=Ottawa Bash
TTITLE8=How Do You Keep The Music Playing
TTITLE9=Now's The Time
EXTD=YEAR: 1995
EXTT0=
EXTT1=
EXTT2=
EXTT3=
EXTT4=
EXTT5=
EXTT6=
EXTT7=
EXTT8=
EXTT9=
PLAYORDER=
